<svg xmlns="http://www.w3.org/2000/svg" width="745" height="174" viewBox="0 0 745 174" role="img" aria-label="Wbasic mascot and wordmark"><title>Wbasic mascot and wordmark</title><g transform="translate(0 -5) scale(.36)"><path d="M151 115 C128 103 99 83 81 79 C57 72 52 103 53 133 C53 151 58 165 66 177 L48 215 L39 246 L48 241 L31 276 L43 269 L33 301 L46 294 C43 322 53 346 70 365 L72 350 C109 400 174 422 256 423 C338 422 403 400 440 350 L442 365 C459 346 469 322 466 294 L479 301 L469 269 L481 276 L464 241 L473 246 L464 215 L446 177 C454 165 459 151 459 133 C460 103 455 72 431 79 C413 83 384 103 361 115 C330 99 294 94 256 95 C218 94 182 99 151 115 Z" fill="#B9CEC4" stroke="#26343D" stroke-width="13" stroke-linejoin="round"/><path d="M79 105 C70 120 71 144 79 157 L96 177 L111 164 L98 153 L112 151 L100 137 L106 137 C99 120 88 109 79 105 Z" fill="#26343D"/><path d="M79 105 C70 120 71 144 79 157 L96 177 L111 164 L98 153 L112 151 L100 137 L106 137 C99 120 88 109 79 105 Z" transform="translate(512 0) scale(-1 1)" fill="#26343D"/><ellipse cx="167" cy="250" rx="14" ry="22" fill="#237F83"/><ellipse cx="345" cy="250" rx="14" ry="22" fill="#237F83"/><path d="M256 252 C221 250 202 278 202 311 C202 340 225 360 256 361 C287 360 310 340 310 311 C310 278 291 250 256 252Z" fill="#26343D"/><path d="M256 358 L256 373 M256 373 C241 389 216 387 203 375 M256 373 C271 389 296 387 309 375" fill="none" stroke="#26343D" stroke-width="7" stroke-linecap="round"/><g fill="none" stroke="#26343D" stroke-width="2.5" stroke-linecap="round"><path d="M172 312 Q143 302 118 310"/><path d="M172 325 Q142 321 119 337"/><path d="M173 337 Q145 343 132 360"/></g><g transform="translate(512 0) scale(-1 1)" fill="none" stroke="#26343D" stroke-width="2.5" stroke-linecap="round"><path d="M172 312 Q143 302 118 310"/><path d="M172 325 Q142 321 119 337"/><path d="M173 337 Q145 343 132 360"/></g></g><g transform="translate(190 0)"><path fill="#26343D" transform="translate(8.0000 143) scale(0.15 -0.15)" d="M338 0H188L26 698H158L227 363L270 149H273L323 363L403 698H549L629 363L678 149H681L725 363L796 698H922L755 0H606L517 369L474 553H472L427 369Z"/><path fill="#26343D" transform="translate(150.3500 143) scale(0.15 -0.15)" d="M74 0V740H202V436H206Q220 481 259.5 507.5Q299 534 350 534Q417 534 462.0 502.0Q507 470 531.0 409.5Q555 349 555 262Q555 175 531.0 113.5Q507 52 462.0 20.0Q417 -12 350 -12Q299 -12 260.0 15.0Q221 42 206 87H202V0ZM309 94Q359 94 390.0 127.5Q421 161 421 216V306Q421 362 390.0 395.5Q359 429 309 429Q279 429 254.5 418.5Q230 408 216.0 389.0Q202 370 202 345V179Q202 152 216.0 133.0Q230 114 254.5 104.0Q279 94 309 94Z"/><path fill="#26343D" transform="translate(240.3500 143) scale(0.15 -0.15)" d="M529 0H458Q429 0 406.5 13.5Q384 27 371.5 53.0Q359 79 359 114V125L391 90H355Q342 40 301.5 14.0Q261 -12 203 -12Q123 -12 80.0 30.5Q37 73 37 142Q37 196 63.5 231.0Q90 266 140.0 284.0Q190 302 260 302H349V340Q349 383 326.0 407.5Q303 432 252 432Q207 432 179.5 412.5Q152 393 133 366L57 434Q86 479 134.0 506.5Q182 534 261 534Q366 534 421.5 485.5Q477 437 477 348V102H529ZM349 225H267Q217 225 192.0 208.5Q167 192 167 161V144Q167 113 188.0 97.0Q209 81 246 81Q275 81 298.0 89.5Q321 98 335.0 115.0Q349 132 349 156Z"/><path fill="#26343D" transform="translate(324.2000 143) scale(0.15 -0.15)" d="M245 -12Q170 -12 119.0 13.5Q68 39 29 84L107 160Q136 127 170.5 108.0Q205 89 250 89Q296 89 316.5 105.0Q337 121 337 149Q337 172 322.5 185.5Q308 199 273 204L221 211Q165 218 126.0 237.0Q87 256 67.0 289.0Q47 322 47 369Q47 445 101.5 489.5Q156 534 245 534Q296 534 332.5 524.5Q369 515 397.0 496.5Q425 478 449 452L374 377Q351 401 319.0 417.0Q287 433 249 433Q209 433 189.5 418.5Q170 404 170 379Q170 353 185.5 339.5Q201 326 238 320L291 313Q377 301 418.5 262.5Q460 224 460 159Q460 109 433.5 70.0Q407 31 358.5 9.5Q310 -12 245 -12Z"/><path fill="#26343D" transform="translate(399.0500 143) scale(0.15 -0.15)" d="M138 598Q99 598 81.0 616.5Q63 635 63 662V682Q63 710 81.0 728.0Q99 746 138 746Q177 746 195.0 728.0Q213 710 213 682V662Q213 635 195.0 616.5Q177 598 138 598ZM74 0V522H202V0Z"/><path fill="#26343D" transform="translate(440.3000 143) scale(0.15 -0.15)" d="M280 -12Q164 -12 101.5 62.0Q39 136 39 262Q39 387 101.5 460.5Q164 534 280 534Q359 534 410.5 499.0Q462 464 485 402L380 355Q371 388 346.0 409.5Q321 431 280 431Q227 431 200.0 397.5Q173 364 173 308V213Q173 159 200.0 125.0Q227 91 280 91Q325 91 350.5 114.5Q376 138 390 173L488 126Q463 57 409.5 22.5Q356 -12 280 -12Z"/><circle cx="534.2500" cy="134" r="9" fill="#237F83"/></g></svg>
